<svg width="96" height="30" viewBox="0 0 96 30" fill="none" xmlns="http://www.w3.org/2000/svg">
<path d="M0.979475 0.512512V6.08186H9.76268L0 29.0397H17.5386V23.4747H8.49081L18.2507 0.512512H0.979475Z" fill="black"/>
<path d="M36.097 0.512512V19.9366C36.0721 21.0044 35.6304 22.0201 34.8664 22.7665C34.1023 23.513 33.0765 23.9308 32.0084 23.9308C30.9402 23.9308 29.9144 23.513 29.1504 22.7665C28.3863 22.0201 27.9446 21.0044 27.9197 19.9366V0.512512H22.3474V19.9366C22.3474 22.4974 23.3647 24.9534 25.1755 26.7641C26.9864 28.5749 29.4424 29.5922 32.0033 29.5922C34.5643 29.5922 37.0203 28.5749 38.8312 26.7641C40.642 24.9534 41.6593 22.4974 41.6593 19.9366V0.512512H36.097Z" fill="black"/>
<path d="M87.317 0.512512L79.7974 11.0631V0.512512H74.2306V29.0413H79.7974V16.9665L88.4039 29.0408H95.1158L84.4058 14.0131L94.0312 0.512512H87.317Z" fill="black"/>
<path d="M66.6148 21.7619C65.2787 22.923 63.6368 23.6754 61.8849 23.9292C60.133 24.183 58.345 23.9276 56.7343 23.1935C55.1235 22.4593 53.7579 21.2774 52.8004 19.7886C51.8428 18.2999 51.3336 16.5671 51.3336 14.797C51.3336 13.0269 51.8428 11.2941 52.8004 9.80532C53.7579 8.31656 55.1235 7.13462 56.7343 6.40046C58.345 5.66631 60.133 5.41093 61.8849 5.66477C63.6368 5.91861 65.2787 6.67096 66.6148 7.8321L70.1225 3.51125C67.9695 1.68615 65.3394 0.514985 62.5424 0.135981C59.7455 -0.243022 56.8985 0.185946 54.3374 1.37227C51.7764 2.5586 49.6082 4.45277 48.0886 6.83123C46.5691 9.2097 45.7617 11.9732 45.7617 14.7956C45.7617 17.618 46.5691 20.3815 48.0886 22.7599C49.6082 25.1384 51.7764 27.0326 54.3374 28.2189C56.8985 29.4052 59.7455 29.8342 62.5424 29.4552C65.3394 29.0762 67.9695 27.905 70.1225 26.0799L66.6148 21.7619Z" fill="black"/>
</svg>
